<?xml version="1.0" encoding="utf-8"?>
<!-- Generator: Adobe Illustrator 16.0.0, SVG Export Plug-In . SVG Version: 6.00 Build 0)  -->
<!DOCTYPE svg PUBLIC "-//W3C//DTD SVG 1.0//EN" "http://www.w3.org/TR/2001/REC-SVG-20010904/DTD/svg10.dtd">
<svg version="1.0" id="Layer_1" xmlns="http://www.w3.org/2000/svg" xmlns:xlink="http://www.w3.org/1999/xlink" x="0px" y="0px"
	 width="100px" height="100px" viewBox="0 0 100 100" enable-background="new 0 0 100 100" xml:space="preserve">
<rect x="56.666" y="10" fill="#FFCA28" width="6.666" height="6.668"/>
<rect x="83.332" y="36.665" fill="#FFCA28" width="6.668" height="6.668"/>
<rect x="10" y="36.665" fill="#FFCA28" width="26.666" height="6.668"/>
<polygon fill="#FFCA28" points="85.282,10 74.141,21.145 78.859,25.854 90,14.715 "/>
<polygon fill="#FFCA28" points="25.281,10 41.146,25.864 45.859,21.145 34.712,10 "/>
<path fill="#29B6F6" d="M73.333,56.666c-3.263-7.832-10.985-13.333-20-13.333c-12.421,0-22.825,8.501-25.794,20h-4.206
	C15.971,63.332,10,69.303,10,76.666S15.971,90,23.333,90h50C82.539,90,90,82.539,90,73.332C90,64.127,82.539,56.666,73.333,56.666z
	 M73.333,83.332h-50c-3.679,0-6.667-2.994-6.667-6.668c0-3.678,2.988-6.666,6.667-6.666h10c0-11.049,8.955-20,20-20
	c7.702,0,13.991,5.854,14.831,13.332h5.169c5.515,0,10,4.486,10,10C83.333,78.848,78.848,83.332,73.333,83.332z"/>
<path fill="#FFCA28" d="M50.653,43.471C50.252,42.387,50,41.226,50,40c0-5.523,4.477-10,9.996-10C65.523,30,70,34.477,70,40
	c0,3.106-1.446,5.847-3.669,7.68c1.783,1.341,3.357,2.943,4.652,4.764c3.458-3.057,5.683-7.469,5.683-12.443
	c0-9.206-7.461-16.667-16.67-16.667c-9.203,0-16.664,7.461-16.664,16.667c0,1.738,0.34,3.382,0.834,4.958
	C46.221,44.204,48.395,43.697,50.653,43.471z"/>
</svg>
