<?xml version="1.0" encoding="utf-8"?>
<!-- Generator: Adobe Illustrator 16.0.0, SVG Export Plug-In . SVG Version: 6.00 Build 0)  -->
<!DOCTYPE svg PUBLIC "-//W3C//DTD SVG 1.0//EN" "http://www.w3.org/TR/2001/REC-SVG-20010904/DTD/svg10.dtd">
<svg version="1.0" id="Layer_1" xmlns="http://www.w3.org/2000/svg" xmlns:xlink="http://www.w3.org/1999/xlink" x="0px" y="0px"
	 width="100px" height="100px" viewBox="0 0 100 100" enable-background="new 0 0 100 100" xml:space="preserve">
<path fill="#29B6F6" d="M86.109,50.586C88.504,47.698,90,44.043,90,40c0-9.206-7.461-16.667-16.666-16.667
	C70.07,15.501,62.348,10,53.334,10c-12.422,0-22.826,8.503-25.795,20h-4.206C15.971,30,10,35.971,10,43.333
	s5.971,13.333,13.333,13.333h23.624c-1.195,2.066-2.141,4.297-2.752,6.666H40c-7.363,0-13.332,5.971-13.332,13.334S32.637,90,40,90
	h50v-6.668H40c-3.678,0-6.667-2.994-6.667-6.666C33.333,72.988,36.322,70,40,70h10c0-11.049,8.955-20,20-20
	c7.703,0,13.992,5.852,14.832,13.332H90v-6.666c-0.939-2.26-2.287-4.291-3.895-6.088L86.109,50.586z M70,43.333
	c-6.75,0-12.896,2.526-17.584,6.667l0,0H23.333c-3.68,0-6.667-2.995-6.667-6.667c0-3.679,2.988-6.666,6.667-6.666h10
	c0-11.049,8.956-20,20-20c7.701,0,13.99,5.853,14.83,13.333h5.17c5.514,0,10,4.484,10,10c0,2.438-0.912,4.643-2.363,6.377v0.002
	C77.748,44.473,74.018,43.333,70,43.333z"/>
</svg>
