<?xml version="1.0" encoding="utf-8"?>
<!-- Generator: Adobe Illustrator 16.0.0, SVG Export Plug-In . SVG Version: 6.00 Build 0)  -->
<!DOCTYPE svg PUBLIC "-//W3C//DTD SVG 1.0//EN" "http://www.w3.org/TR/2001/REC-SVG-20010904/DTD/svg10.dtd">
<svg version="1.0" id="Layer_1" xmlns="http://www.w3.org/2000/svg" xmlns:xlink="http://www.w3.org/1999/xlink" x="0px" y="0px"
	 width="100px" height="100px" viewBox="0 0 100 100" enable-background="new 0 0 100 100" xml:space="preserve">
<path fill="#29B6F6" d="M76.668,33.333C76.668,25.971,70.699,20,63.332,20c-1.564,0-3.047,0.318-4.441,0.816
	C56.514,14.508,50.477,10,43.333,10c-9.205,0-16.666,7.461-16.666,16.667C17.461,26.667,10,34.127,10,43.333S17.461,60,26.667,60h50
	C84.029,60,90,54.029,90,46.667C90,39.303,84.029,33.333,76.668,33.333z M76.668,53.333h-50c-5.521,0-10-4.479-10-10
	c0-5.526,4.479-10,10-10h6.666v-6.667c0-5.527,4.478-10,10-10c4.894,0,8.95,3.516,9.813,8.158C51.211,27.139,50,30.082,50,33.333
	h6.667c0-3.685,2.982-6.667,6.664-6.667c3.688,0,6.668,2.982,6.668,6.667v1.849c-3.969,2.313-6.668,6.563-6.668,11.485H70
	C70,42.988,72.984,40,76.668,40c3.682,0,6.664,2.98,6.664,6.667C83.332,50.346,80.35,53.333,76.668,53.333z"/>
<circle fill="#29B6F6" cx="23.333" cy="71.667" r="3.333"/>
<circle fill="#29B6F6" cx="38.333" cy="71.667" r="3.333"/>
<circle fill="#29B6F6" cx="53.334" cy="71.667" r="3.333"/>
<circle fill="#29B6F6" cx="68.332" cy="71.667" r="3.333"/>
<circle fill="#29B6F6" cx="16.667" cy="86.667" r="3.333"/>
<circle fill="#29B6F6" cx="31.667" cy="86.667" r="3.333"/>
<circle fill="#29B6F6" cx="46.667" cy="86.667" r="3.333"/>
<circle fill="#29B6F6" cx="61.668" cy="86.667" r="3.333"/>
</svg>
