<?xml version="1.0" encoding="utf-8"?>
<!-- Generator: Adobe Illustrator 16.0.0, SVG Export Plug-In . SVG Version: 6.00 Build 0)  -->
<!DOCTYPE svg PUBLIC "-//W3C//DTD SVG 1.0//EN" "http://www.w3.org/TR/2001/REC-SVG-20010904/DTD/svg10.dtd">
<svg version="1.0" id="Layer_1" xmlns="http://www.w3.org/2000/svg" xmlns:xlink="http://www.w3.org/1999/xlink" x="0px" y="0px"
	 width="100px" height="100px" viewBox="0 0 100 100" enable-background="new 0 0 100 100" xml:space="preserve">
<path fill="#BDBDBD" d="M46.667,70H10v6.667h36.667C48.506,76.667,50,78.157,50,80s-1.494,3.333-3.333,3.333H40V90h6.667
	c5.521,0,10-4.472,10-10C56.667,74.479,52.188,70,46.667,70z"/>
<path fill="#BDBDBD" d="M53.332,56.667C57.016,56.667,60,53.686,60,50c0-3.682-2.984-6.667-6.668-6.667h-6.666v-6.667h6.666
	c7.361,0,13.334,5.971,13.334,13.333c0,7.37-5.973,13.333-13.334,13.333H10v-6.666L53.332,56.667L53.332,56.667z"/>
<path fill="#29B6F6" d="M73.333,23.333C70.07,15.5,62.347,10,53.332,10c-12.42,0-22.825,8.502-25.793,20h-4.205
	C15.971,30,10,35.97,10,43.333l0,0V50h6.667v-6.667c0-3.679,2.987-6.667,6.667-6.667h9.999c0-11.048,8.956-20,20-20
	c7.701,0,13.99,5.854,14.83,13.333h5.171c5.515,0,9.999,4.485,9.999,10c0,5.514-4.484,10-9.999,10v6.667
	C82.539,56.667,90,49.206,90,40S82.539,23.333,73.333,23.333z"/>
</svg>
